<svg width="20" height="20" viewBox="0 0 20 20" fill="none" xmlns="http://www.w3.org/2000/svg">
<g clip-path="url(#clip0_1_12214)">
<path fill-rule="evenodd" clip-rule="evenodd" d="M1.66669 2.49984C1.66669 2.0396 2.03978 1.6665 2.50002 1.6665H17.5C17.9603 1.6665 18.3334 2.0396 18.3334 2.49984V4.65466C18.3334 5.09669 18.1578 5.52061 17.8452 5.83317L12.5 11.1783V15.8332C12.5 16.1488 12.3217 16.4374 12.0394 16.5785L8.70603 18.2452C8.44771 18.3744 8.14092 18.3606 7.89524 18.2087C7.64956 18.0569 7.50002 17.7887 7.50002 17.4998V11.1783L2.15484 5.83317C1.84228 5.52061 1.66669 5.09669 1.66669 4.65466V2.49984ZM3.33335 3.33317V4.65466L8.92261 10.2439C9.07889 10.4002 9.16669 10.6122 9.16669 10.8332V16.1515L10.8334 15.3181V10.8332C10.8334 10.6122 10.9212 10.4002 11.0774 10.2439L16.6667 4.65466V3.33317H3.33335Z" fill="#8A8A8A"/>
</g>
<defs>
<clipPath id="clip0_1_12214">
<rect width="16.6667" height="16.6667" fill="white" transform="translate(1.66669 1.6665)"/>
</clipPath>
</defs>
</svg>
